<mxfile host="app.diagrams.net" modified="2021-11-29T02:27:40.606Z" agent="5.0 (Macintosh; Intel Mac OS X 10_15_7) AppleWebKit/537.36 (KHTML, like Gecko) Chrome/96.0.4664.55 Safari/537.36" etag="2RP5SfAVO9KEJ0JCb3-p" version="14.7.8" type="github">
  <diagram id="z8PvWHxGnftX8m6pFPrI" name="Page-1">
    <mxGraphModel dx="860" dy="524" grid="1" gridSize="10" guides="1" tooltips="1" connect="1" arrows="1" fold="1" page="1" pageScale="1" pageWidth="827" pageHeight="1169" math="0" shadow="0">
      <root>
        <mxCell id="0" />
        <mxCell id="1" parent="0" />
        <mxCell id="gXL1UtWkqfJ8GKwK5xiI-1" value="&lt;font face=&quot;Times New Roman&quot;&gt;Fib (n)&lt;/font&gt;" style="ellipse;whiteSpace=wrap;html=1;aspect=fixed;" vertex="1" parent="1">
          <mxGeometry x="374" y="40" width="80" height="80" as="geometry" />
        </mxCell>
        <mxCell id="gXL1UtWkqfJ8GKwK5xiI-2" value="&lt;span style=&quot;font-family: &amp;#34;times new roman&amp;#34;&quot;&gt;Fib (n-1)&lt;/span&gt;" style="ellipse;whiteSpace=wrap;html=1;aspect=fixed;" vertex="1" parent="1">
          <mxGeometry x="294" y="160" width="80" height="80" as="geometry" />
        </mxCell>
        <mxCell id="gXL1UtWkqfJ8GKwK5xiI-3" value="&lt;span style=&quot;font-family: &amp;#34;times new roman&amp;#34;&quot;&gt;Fib (n-2)&lt;/span&gt;" style="ellipse;whiteSpace=wrap;html=1;aspect=fixed;" vertex="1" parent="1">
          <mxGeometry x="454" y="160" width="80" height="80" as="geometry" />
        </mxCell>
        <mxCell id="gXL1UtWkqfJ8GKwK5xiI-4" value="&lt;span style=&quot;font-family: &amp;#34;times new roman&amp;#34;&quot;&gt;Fib (2)&lt;/span&gt;" style="ellipse;whiteSpace=wrap;html=1;aspect=fixed;" vertex="1" parent="1">
          <mxGeometry x="294" y="480" width="80" height="80" as="geometry" />
        </mxCell>
        <mxCell id="gXL1UtWkqfJ8GKwK5xiI-5" value="&lt;span style=&quot;font-family: &amp;#34;times new roman&amp;#34;&quot;&gt;Fib (n-4)&lt;/span&gt;" style="ellipse;whiteSpace=wrap;html=1;aspect=fixed;" vertex="1" parent="1">
          <mxGeometry x="454" y="320" width="80" height="80" as="geometry" />
        </mxCell>
        <mxCell id="gXL1UtWkqfJ8GKwK5xiI-6" value="&lt;span style=&quot;font-family: &amp;#34;times new roman&amp;#34;&quot;&gt;Fib (n-3)&lt;/span&gt;" style="ellipse;whiteSpace=wrap;html=1;aspect=fixed;" vertex="1" parent="1">
          <mxGeometry x="294" y="320" width="80" height="80" as="geometry" />
        </mxCell>
        <mxCell id="gXL1UtWkqfJ8GKwK5xiI-7" value="&lt;span style=&quot;font-family: &amp;#34;times new roman&amp;#34;&quot;&gt;Fib (1)&lt;/span&gt;" style="ellipse;whiteSpace=wrap;html=1;aspect=fixed;" vertex="1" parent="1">
          <mxGeometry x="460" y="480" width="80" height="80" as="geometry" />
        </mxCell>
        <mxCell id="gXL1UtWkqfJ8GKwK5xiI-8" value="&lt;span style=&quot;font-family: &amp;#34;times new roman&amp;#34;&quot;&gt;Fib (0)&lt;/span&gt;" style="ellipse;whiteSpace=wrap;html=1;aspect=fixed;" vertex="1" parent="1">
          <mxGeometry x="294" y="630" width="80" height="80" as="geometry" />
        </mxCell>
        <mxCell id="gXL1UtWkqfJ8GKwK5xiI-9" value="" style="endArrow=classic;html=1;" edge="1" parent="1">
          <mxGeometry width="50" height="50" relative="1" as="geometry">
            <mxPoint x="370" y="100" as="sourcePoint" />
            <mxPoint x="340" y="150" as="targetPoint" />
          </mxGeometry>
        </mxCell>
        <mxCell id="gXL1UtWkqfJ8GKwK5xiI-10" value="" style="endArrow=classic;html=1;" edge="1" parent="1">
          <mxGeometry width="50" height="50" relative="1" as="geometry">
            <mxPoint x="450" y="240" as="sourcePoint" />
            <mxPoint x="380" y="340" as="targetPoint" />
          </mxGeometry>
        </mxCell>
        <mxCell id="gXL1UtWkqfJ8GKwK5xiI-11" value="" style="endArrow=classic;html=1;" edge="1" parent="1">
          <mxGeometry width="50" height="50" relative="1" as="geometry">
            <mxPoint x="460" y="100" as="sourcePoint" />
            <mxPoint x="490" y="140" as="targetPoint" />
          </mxGeometry>
        </mxCell>
        <mxCell id="gXL1UtWkqfJ8GKwK5xiI-12" value="" style="endArrow=classic;html=1;" edge="1" parent="1">
          <mxGeometry width="50" height="50" relative="1" as="geometry">
            <mxPoint x="380" y="200" as="sourcePoint" />
            <mxPoint x="450" y="200" as="targetPoint" />
          </mxGeometry>
        </mxCell>
        <mxCell id="gXL1UtWkqfJ8GKwK5xiI-13" value="" style="endArrow=classic;html=1;" edge="1" parent="1">
          <mxGeometry width="50" height="50" relative="1" as="geometry">
            <mxPoint x="333.5" y="250" as="sourcePoint" />
            <mxPoint x="333.5" y="310" as="targetPoint" />
          </mxGeometry>
        </mxCell>
        <mxCell id="gXL1UtWkqfJ8GKwK5xiI-14" value="" style="endArrow=classic;html=1;" edge="1" parent="1">
          <mxGeometry width="50" height="50" relative="1" as="geometry">
            <mxPoint x="384" y="519.5" as="sourcePoint" />
            <mxPoint x="454" y="519.5" as="targetPoint" />
          </mxGeometry>
        </mxCell>
        <mxCell id="gXL1UtWkqfJ8GKwK5xiI-15" value="" style="endArrow=classic;html=1;" edge="1" parent="1">
          <mxGeometry width="50" height="50" relative="1" as="geometry">
            <mxPoint x="333.5" y="570" as="sourcePoint" />
            <mxPoint x="333.5" y="630" as="targetPoint" />
          </mxGeometry>
        </mxCell>
        <mxCell id="gXL1UtWkqfJ8GKwK5xiI-16" value="" style="endArrow=classic;html=1;" edge="1" parent="1">
          <mxGeometry width="50" height="50" relative="1" as="geometry">
            <mxPoint x="379" y="359.5" as="sourcePoint" />
            <mxPoint x="449" y="359.5" as="targetPoint" />
          </mxGeometry>
        </mxCell>
        <mxCell id="gXL1UtWkqfJ8GKwK5xiI-17" value="" style="endArrow=none;dashed=1;html=1;dashPattern=1 3;strokeWidth=2;" edge="1" parent="1">
          <mxGeometry width="50" height="50" relative="1" as="geometry">
            <mxPoint x="333.5" y="470" as="sourcePoint" />
            <mxPoint x="333.5" y="410" as="targetPoint" />
          </mxGeometry>
        </mxCell>
        <mxCell id="gXL1UtWkqfJ8GKwK5xiI-18" value="" style="endArrow=none;dashed=1;html=1;dashPattern=1 3;strokeWidth=2;" edge="1" parent="1">
          <mxGeometry width="50" height="50" relative="1" as="geometry">
            <mxPoint x="493.5" y="470" as="sourcePoint" />
            <mxPoint x="493.5" y="410" as="targetPoint" />
          </mxGeometry>
        </mxCell>
        <mxCell id="gXL1UtWkqfJ8GKwK5xiI-19" value="" style="endArrow=classic;html=1;" edge="1" parent="1">
          <mxGeometry width="50" height="50" relative="1" as="geometry">
            <mxPoint x="454" y="390" as="sourcePoint" />
            <mxPoint x="360" y="430" as="targetPoint" />
          </mxGeometry>
        </mxCell>
      </root>
    </mxGraphModel>
  </diagram>
</mxfile>
